<svg xmlns="http://www.w3.org/2000/svg" viewBox="0 0 1920 1080"><defs><style>.cls-1{isolation:isolate;}.cls-2{fill:#f80328;}.cls-3,.cls-5,.cls-7{fill:#1cb398;}.cls-4{fill:#4c4c48;}.cls-4,.cls-5,.cls-7{stroke:#000;stroke-miterlimit:10;}.cls-4,.cls-7{stroke-width:2px;}.cls-6{fill:#c6c6c2;}.cls-8{mix-blend-mode:multiply;}</style></defs><g class="cls-1"><g id="Layer_2" data-name="Layer 2"><polygon class="cls-2" points="912.34 824.94 905.07 832.41 905.07 844.59 1476.94 978 1478.25 966.2 1467.76 945.21 943.11 811.42 912.34 824.94"/><polygon class="cls-3" points="1341.84 930.78 1341.84 943.27 1382.5 953.08 1392.45 941.93 1389.1 926.85 1351.02 918.98 1341.84 930.78"/><polygon points="1335.28 926.85 1398.24 941.27 1392.99 922.91 1344.46 912.42 1335.28 926.85"/><polygon class="cls-3" points="975.9 837.66 975.9 857.2 1013.93 866.51 1020.49 848.15 1016.56 835.03 979.83 831.1 975.9 837.66"/><polygon points="971.31 841.91 1030.98 854.71 1017.87 832.41 971.31 824.94 971.31 841.91"/><polygon class="cls-4" points="1574 545.16 1478.25 966.2 1386.44 946.52 1386.44 931.88 1353.65 922.91 1344.46 934.72 1255.27 913.73 1246.09 918.98 1122.8 891.43 1116.24 882.25 1016.56 858.64 1016.56 842.8 986.39 837.66 975.9 849.46 905.07 832.41 1049.35 436.3 1247.4 475.65 1247.4 486.14 1368.07 509.75 1369.39 504.5 1574 545.16"/><polygon points="1447.4 526.23 1449.39 546.47 1480.87 551.72 1489.93 534.87 1447.4 526.23"/><polygon class="cls-3" points="1368.07 509.75 1367.01 509.54 1376 517 1570.66 559.84 1574 545.16 1369.39 504.5 1368.07 509.75"/><path d="M1370.7,511.06s127.23,42,148.21,177.07l-1.31,10.49s-17-134.18-146.9-181.2Z"/><path d="M1260.52,905.86s148.21,9.18,230.85-106.24c0,0-57.71,115.42-230.85,112.8Z"/><ellipse cx="1247.4" cy="685.51" rx="32.79" ry="26.23"/><polygon class="cls-5" points="1493.5 529.16 1447.4 520 1449.39 535.98 1485.55 541.88 1493.5 529.16"/><polygon class="cls-6" points="1044.42 449.82 1014.34 532.41 1117.78 884.41 1122.8 891.43 1163.47 900.52 1044.42 449.82"/><path d="M979.83,685.51S972,794.37,1116.24,873.07v4.56S974.58,811.42,979.83,685.51Z"/><polygon class="cls-6" points="1203.95 909.56 1218.35 912.78 1098.31 446.02 1082.85 442.95 1203.95 909.56"/><polygon points="1110.11 453.44 1112.31 474.33 1141.16 479.58 1153.15 462.8 1110.11 453.44"/><polygon class="cls-3" points="1046.3 444.66 1247.4 486.14 1247.4 475.65 1049.35 436.3 1046.3 444.66"/><polygon class="cls-5" points="1147.72 470.4 1156.83 457.65 1110.11 448.37 1110.99 462.53 1147.72 470.4"/><path d="M1017.87,578s57.71-89.19,219-95.75v8.31s-148.21,4.5-219,97.78Z"/><polygon class="cls-2" points="905.07 844.59 847.59 831.1 849.32 813.39 897.49 824.94 905.07 832.41 905.07 844.59"/><polygon class="cls-7" points="1046.3 425.54 1000.16 414.65 998.85 429.08 849.32 813.39 897.49 824.94 905.07 832.41 1046.3 444.66 1048.02 439.95 1049.35 436.3 1046.3 425.54"/><polygon class="cls-7" points="346.97 497.29 848.46 822.26 849.32 813.39 1004.99 414.65 560.76 101.17 346.97 497.29"/><polygon class="cls-2" points="849.05 816.21 350.63 490.51 346.97 497.29 848.46 822.26 849.05 816.21"/><path class="cls-2" d="M531.07,456.07l18.42-44.81-46.37-35.41a39.55,39.55,0,0,1-12.31-16.1,57.79,57.79,0,0,1-4.68-21.16,49.53,49.53,0,0,1,3.56-20.79,52.5,52.5,0,0,1,12.64-18.26l82.38-70.12L614,251.76l-93.25,77.88a35.38,35.38,0,0,0-2.42,2.74,14.42,14.42,0,0,0-1.75,3.25,11.82,11.82,0,0,0-.81,6.45,8.23,8.23,0,0,0,3.33,5.41l43.12,32.94q14.6-35.51,29.2-71l25.78,19.7-29.19,71,20.15,15.39-12.69,30.84L575.28,431q-9.21,22.4-18.43,44.8Z"/><path class="cls-2" d="M655.53,555.72c-10.65-7.42-19.27-19.19-24.93-31.47a106.38,106.38,0,0,1-9.62-41,101,101,0,0,1,7.53-41.85l28-68.08c4.75-11.81,12.21-23.76,22.26-30.59,8.79-6,19.33-10.49,30.69-10.21,12.12.3,23.29,6,32.71,12.56,10.54,7.36,19,19,24.6,31.22a107.08,107.08,0,0,1,9.51,40.91,101,101,0,0,1-7.53,41.85l-28,68.07C736,539,728.54,550.9,718.49,557.74c-8.76,6-19.26,10.5-30.58,10.29C675.9,567.8,664.85,562.21,655.53,555.72Zm12.56-30.55q8.24,6.29,17,6.33A27.42,27.42,0,0,0,701.66,526q7.7-5.6,12-16.06,15.08-36.66,30.16-73.31a50.68,50.68,0,0,0,3.78-22.35,62.73,62.73,0,0,0-5.21-21.95,41.49,41.49,0,0,0-12.8-16.65,29.73,29.73,0,0,0-17.37-6.58,26.61,26.61,0,0,0-16.84,5.3q-7.71,5.58-12,16.05l-30.15,73.31a51.78,51.78,0,0,0-3.78,22.35,58.39,58.39,0,0,0,5.36,22.26A44.38,44.38,0,0,0,668.09,525.17Z"/><path class="cls-2" d="M811,669.9q9.21-22.41,18.43-44.8l-46.37-35.42a39.42,39.42,0,0,1-12.32-16.1,58.2,58.2,0,0,1-4.68-21.16,49.57,49.57,0,0,1,3.57-20.79,52.3,52.3,0,0,1,12.63-18.26l82.38-70.12,29.26,22.34-93.26,77.88a33,33,0,0,0-2.41,2.74,14.41,14.41,0,0,0-1.76,3.25,11.84,11.84,0,0,0-.81,6.46,8.21,8.21,0,0,0,3.33,5.4l43.12,32.94q14.6-35.49,29.2-71L897.13,543q-14.61,35.49-29.2,71l20.15,15.4q-6.35,15.42-12.68,30.84l-20.16-15.4-18.42,44.8Z"/><g class="cls-8"><path d="M535.93,459.78q9.21-22.39,18.43-44.8L508,379.56a39.48,39.48,0,0,1-12.32-16.09A58.24,58.24,0,0,1,491,342.31a49.7,49.7,0,0,1,3.57-20.79,52.15,52.15,0,0,1,12.64-18.26l82.38-70.13,29.25,22.35-93.26,77.87a33,33,0,0,0-2.41,2.75,14.72,14.72,0,0,0-1.76,3.24,11.76,11.76,0,0,0-.8,6.46,8.22,8.22,0,0,0,3.33,5.41L567,384.14q14.61-35.49,29.2-71L622,332.85q-14.6,35.5-29.2,71L613,419.23q-6.33,15.42-12.68,30.84l-20.15-15.39q-9.23,22.4-18.43,44.8Z"/><path d="M660.4,559.43C649.75,552,641.13,540.25,635.46,528a106.61,106.61,0,0,1-9.62-41,101.16,101.16,0,0,1,7.53-41.84l28-68.08c4.76-11.82,12.22-23.77,22.27-30.59,8.78-6,19.32-10.49,30.68-10.21,12.13.3,23.3,6,32.71,12.56,10.55,7.35,19,19,24.61,31.22a107.23,107.23,0,0,1,9.51,40.91,101.13,101.13,0,0,1-7.53,41.84q-14,34-28,68.08c-4.76,11.82-12.21,23.76-22.27,30.59-8.75,5.95-19.25,10.51-30.57,10.29C680.77,571.51,669.71,565.92,660.4,559.43ZM673,528.89q8.24,6.29,17,6.33a27.44,27.44,0,0,0,16.51-5.55q7.71-5.58,12-16l30.15-73.32A50.61,50.61,0,0,0,752.47,418,62.51,62.51,0,0,0,747.26,396a41.66,41.66,0,0,0-12.79-16.66,29.84,29.84,0,0,0-17.37-6.57,26.63,26.63,0,0,0-16.85,5.29q-7.69,5.58-12,16.06-15.07,36.66-30.16,73.31a52,52,0,0,0-3.78,22.35,58.26,58.26,0,0,0,5.37,22.26A44.29,44.29,0,0,0,673,528.89Z"/><path d="M815.89,673.61q9.23-22.4,18.43-44.8L788,593.4a39.55,39.55,0,0,1-12.31-16.1A57.83,57.83,0,0,1,771,556.14a49.53,49.53,0,0,1,3.56-20.79,51.39,51.39,0,0,1,5.63-10.23,50.62,50.62,0,0,1,7-8L869.54,447l29.25,22.34-93.25,77.88a31.8,31.8,0,0,0-2.42,2.74,14.82,14.82,0,0,0-1.76,3.25,11.9,11.9,0,0,0-.8,6.45,8.25,8.25,0,0,0,3.33,5.41Q825.45,581.51,847,598l29.19-71L902,546.69q-14.6,35.49-29.2,71L893,633.06,880.26,663.9l-20.15-15.39-18.43,44.8Z"/></g></g></g></svg>