<svg width="61" height="61" viewBox="0 0 61 61" fill="none" xmlns="http://www.w3.org/2000/svg">
<path d="M30.5 0C13.6552 0 0 13.6552 0 30.5C0 47.3448 13.6552 61 30.5 61C47.3448 61 61 47.3448 61 30.5C61 13.6552 47.3448 0 30.5 0ZM34.2114 6.47483H38.6685V8.1217H34.2147L34.2114 6.47483ZM34.2114 8.61905H38.6685V10.2659H34.2147L34.2114 8.61905ZM34.2114 10.7633H38.6685V12.4101H34.2147L34.2114 10.7633ZM34.2114 12.9075H38.6685V14.5544H34.2147L34.2114 12.9075ZM34.2114 15.0517H38.6685V16.6986H34.2147L34.2114 15.0517ZM34.2114 17.1966H38.6685V18.8435H34.2147L34.2114 17.1966ZM28.2734 12.9075H32.7266V14.5544H28.2734V12.9075ZM28.2734 15.0517H32.7266V16.6986H28.2734V15.0517ZM28.2734 17.1966H32.7266V18.8435H28.2734V17.1966ZM22.3348 6.47483H26.7886V8.1217H22.3348V6.47483ZM22.3348 8.61905H26.7886V10.2659H22.3348V8.61905ZM22.3348 10.7633H26.7886V12.4101H22.3348V10.7633ZM22.3348 12.9075H26.7886V14.5544H22.3348V12.9075ZM22.3348 15.0517H26.7886V16.6986H22.3348V15.0517ZM22.3348 17.1966H26.7886V18.8435H22.3348V17.1966ZM23.6312 51.8882C23.2723 52.2474 22.8461 52.5323 22.3771 52.7267C21.908 52.9211 21.4052 53.0211 20.8974 53.0211C20.3897 53.0211 19.8869 52.9211 19.4178 52.7267C18.9487 52.5323 18.5226 52.2474 18.1636 51.8882L13.9654 47.6867C13.6066 47.3283 13.322 46.9026 13.1278 46.4341C12.9336 45.9656 12.8336 45.4634 12.8336 44.9562C12.8336 44.449 12.9336 43.9468 13.1278 43.4783C13.322 43.0098 13.6066 42.5842 13.9654 42.2257L15.3943 40.7969C12.2542 36.3914 10.8717 30.9725 11.5175 25.6011C12.1633 20.2298 14.7908 15.293 18.8856 11.7573L19.5029 12.4721C15.5664 15.8708 13.0483 20.6227 12.4463 25.7885C11.8444 30.9543 13.2024 36.1579 16.252 40.3707L25.6991 49.8197L23.6312 51.8882ZM26.0739 49.4976L16.3903 39.814L18.0694 38.1349L27.753 47.8185L26.0739 49.4976ZM29.5652 48.0859L18.4324 36.9531C7.20999 25.7307 19.2954 13.646 30.5191 24.8697C41.7712 13.6176 53.8559 25.7023 42.6038 36.9557L31.471 48.0886C31.218 48.3407 30.8753 48.4823 30.5181 48.4823C30.1609 48.4823 29.8182 48.3407 29.5652 48.0886V48.0859ZM33.2404 47.8191L42.924 38.1355L44.6031 39.8147L34.9195 49.4983L33.2404 47.8191ZM47.0273 42.2257C47.3858 42.5841 47.6702 43.0096 47.8642 43.478C48.0583 43.9463 48.1581 44.4483 48.1581 44.9552C48.1581 45.4622 48.0583 45.9641 47.8642 46.4325C47.6702 46.9008 47.3858 47.3263 47.0273 47.6847L42.8258 51.8862C42.1011 52.6106 41.1183 53.0175 40.0937 53.0175C39.069 53.0175 38.0863 52.6106 37.3615 51.8862L35.2937 49.8178L44.7671 40.3443C47.8068 36.1313 49.1572 30.9321 48.5518 25.7723C47.9465 20.6126 45.4294 15.8671 41.4971 12.4721L42.1144 11.7573C46.2101 15.2932 48.8382 20.2308 49.484 25.603C50.1298 30.9752 48.7468 36.395 45.6057 40.8008L47.0273 42.2257Z" fill="white"/>
</svg>
