<!--<svg id="Layer_1" data-name="Layer 1" xmlns="http://www.w3.org/2000/svg" viewBox="0 0 1920 1080"><defs><style>.cls-1{fill:#1cb398;}</style></defs><path class="cls-1" d="M960,151c-238,0-431,193-431,431s193,431,431,431,431-193,431-431S1198,151,960,151Zm52.45,91.49h62.93V265.8h-62.93Zm0,30.31h62.93v23.3h-62.93Zm0,30.3h62.93v23.31h-62.93Zm0,30.3h62.93v23.31h-62.93Zm0,30.3h62.93V387h-62.93Zm0,30.3h62.93v23.31h-62.93Zm-83.92-60.6h62.94v23.31H928.53Zm0,30.3h62.94V387H928.53Zm0,30.3h62.94v23.31H928.53ZM844.62,242.49h62.93V265.8H844.62Zm0,30.31h62.93v23.3H844.62Zm0,30.3h62.93v23.31H844.62Zm0,30.3h62.93v23.31H844.62Zm0,30.3h62.93V387H844.62Zm0,30.3h62.93v23.31H844.62Zm18.32,490.24a54.61,54.61,0,0,1-77.22,0l-59.37-59.38a54.53,54.53,0,0,1,0-77.14l20.18-20.19a306.88,306.88,0,0,1,49.34-410.36l8.73,10.1a293.5,293.5,0,0,0-46,394.24L892.16,855Zm34.51-33.78L760.58,713.59l23.72-23.73L921.18,826.74Zm49.34-20L789.5,673.21C630.89,514.6,801.66,343.83,960.27,502.44c159-159,329.78,11.77,170.77,170.77L973.75,830.51A19.07,19.07,0,0,1,946.79,830.51Zm51.93-3.77L1135.6,689.86l23.72,23.73L1022.45,850.46Zm194.83-79a54.53,54.53,0,0,1,0,77.14l-59.37,59.38a54.61,54.61,0,0,1-77.22,0L1027.74,855l133.87-133.87a293.49,293.49,0,0,0-46.21-393.87l8.73-10.1a306.87,306.87,0,0,1,49.29,410.42Z"/></svg>-->

<svg id="Layer_1" data-name="Layer 1" xmlns="http://www.w3.org/2000/svg" viewBox="0 0 1366 768"><defs><style>.cls-1{fill:#1cb398;} .cls-1:hover{fill:#f80328}</style></defs><path class="cls-1" d="M683,162.41c-139,0-251.59,112.64-251.59,251.59S544.05,665.59,683,665.59,934.59,553,934.59,414,822,162.41,683,162.41Zm30.61,53.41h36.74v13.61H713.61Zm0,17.69h36.74v13.6H713.61Zm0,17.69h36.74v13.6H713.61Zm0,17.68h36.74v13.61H713.61Zm0,17.69h36.74v13.61H713.61Zm0,17.69h36.74v13.61H713.61Zm-49-35.38h36.74v13.61H664.63Zm0,17.69h36.74v13.61H664.63Zm0,17.69h36.74v13.61H664.63Zm-49-88.44h36.74v13.61H615.65Zm0,17.69h36.74v13.6H615.65Zm0,17.69h36.74v13.6H615.65Zm0,17.68h36.74v13.61H615.65Zm0,17.69h36.74v13.61H615.65Zm0,17.69h36.74v13.61H615.65Zm10.69,286.17a31.88,31.88,0,0,1-45.07,0l-34.66-34.66a31.83,31.83,0,0,1,0-45L558.39,499a179.14,179.14,0,0,1,28.8-239.54l5.1,5.9a171.32,171.32,0,0,0-26.82,230.13l77.93,77.93Zm20.15-19.72-79.9-79.9L580.44,477l79.9,79.9Zm28.8-11.65-91.82-91.82c-92.58-92.58,7.1-192.27,99.69-99.68,92.81-92.82,192.5,6.87,99.68,99.68L691,559.06A11.11,11.11,0,0,1,675.29,559.06Zm30.31-2.2L785.5,477l13.85,13.85-79.9,79.9Zm113.73-46.12a31.83,31.83,0,0,1,0,45l-34.65,34.66a31.89,31.89,0,0,1-45.08,0l-17.06-17.06,78.15-78.15a171.32,171.32,0,0,0-27-229.91l5.1-5.9A179.14,179.14,0,0,1,807.58,499Z"/></svg>
