<svg id="Layer_1" data-name="Layer 1" xmlns="http://www.w3.org/2000/svg" viewBox="0 0 1366 768"><defs><style>.cls-1{fill:#1cb398;}</style></defs><path class="cls-1" d="M683,162.41c-139,0-251.59,112.64-251.59,251.59S544.05,665.59,683,665.59,934.59,553,934.59,414,822,162.41,683,162.41Zm30.61,53.41h36.74v13.61H713.61Zm0,17.69h36.74v13.6H713.61Zm0,17.69h36.74v13.6H713.61Zm0,17.68h36.74v13.61H713.61Zm0,17.69h36.74v13.61H713.61Zm0,17.69h36.74v13.61H713.61Zm-49-35.38h36.74v13.61H664.63Zm0,17.69h36.74v13.61H664.63Zm0,17.69h36.74v13.61H664.63Zm-49-88.44h36.74v13.61H615.65Zm0,17.69h36.74v13.6H615.65Zm0,17.69h36.74v13.6H615.65Zm0,17.68h36.74v13.61H615.65Zm0,17.69h36.74v13.61H615.65Zm0,17.69h36.74v13.61H615.65Zm10.69,286.17a31.88,31.88,0,0,1-45.07,0l-34.66-34.66a31.83,31.83,0,0,1,0-45L558.39,499a179.14,179.14,0,0,1,28.8-239.54l5.1,5.9a171.32,171.32,0,0,0-26.82,230.13l77.93,77.93Zm20.15-19.72-79.9-79.9L580.44,477l79.9,79.9Zm28.8-11.65-91.82-91.82c-92.58-92.58,7.1-192.27,99.69-99.68,92.81-92.82,192.5,6.87,99.68,99.68L691,559.06A11.11,11.11,0,0,1,675.29,559.06Zm30.31-2.2L785.5,477l13.85,13.85-79.9,79.9Zm113.73-46.12a31.83,31.83,0,0,1,0,45l-34.65,34.66a31.89,31.89,0,0,1-45.08,0l-17.06-17.06,78.15-78.15a171.32,171.32,0,0,0-27-229.91l5.1-5.9A179.14,179.14,0,0,1,807.58,499Z"/></svg>