<svg width="650" height="650" viewBox="0 0 997 997" fill="none" xmlns="http://www.w3.org/2000/svg">
<path d="M498.5 0C223.184 0 0 223.184 0 498.5C0 773.816 223.184 997 498.5 997C773.816 997 997 773.816 997 498.5C997 223.184 773.816 0 498.5 0ZM559.16 105.826H632.008V132.743H559.214L559.16 105.826ZM559.16 140.872H632.008V167.789H559.214L559.16 140.872ZM559.16 175.918H632.008V202.835H559.214L559.16 175.918ZM559.16 210.963H632.008V237.88H559.214L559.16 210.963ZM559.16 246.009H632.008V272.926H559.214L559.16 246.009ZM559.16 281.066H632.008V307.983H559.214L559.16 281.066ZM462.108 210.963H534.892V237.88H462.108V210.963ZM462.108 246.009H534.892V272.926H462.108V246.009ZM462.108 281.066H534.892V307.983H462.108V281.066ZM365.046 105.826H437.84V132.743H365.046V105.826ZM365.046 140.872H437.84V167.789H365.046V140.872ZM365.046 175.918H437.84V202.835H365.046V175.918ZM365.046 210.963H437.84V237.88H365.046V210.963ZM365.046 246.009H437.84V272.926H365.046V246.009ZM365.046 281.066H437.84V307.983H365.046V281.066ZM386.235 848.074C380.369 853.945 373.403 858.602 365.737 861.779C358.07 864.956 349.852 866.591 341.553 866.591C333.254 866.591 325.037 864.956 317.37 861.779C309.703 858.602 302.738 853.945 296.871 848.074L228.255 779.404C222.39 773.546 217.738 766.589 214.564 758.931C211.39 751.274 209.756 743.065 209.756 734.776C209.756 726.487 211.39 718.279 214.564 710.621C217.738 702.963 222.39 696.007 228.255 690.148L251.608 666.795C200.286 594.791 177.69 506.222 188.245 418.432C198.8 330.641 241.745 249.952 308.672 192.165L318.76 203.847C254.421 259.397 213.265 337.064 203.426 421.494C193.588 505.925 215.784 590.974 265.626 659.829L420.032 814.267L386.235 848.074ZM426.158 809.002L267.887 650.731L295.332 623.286L453.603 781.558L426.158 809.002ZM483.222 785.929L301.264 603.971C117.842 420.549 315.368 223.033 498.812 406.477C682.719 222.57 880.235 420.086 696.328 604.014L514.37 785.972C510.235 790.094 504.635 792.408 498.796 792.408C492.958 792.408 487.357 790.094 483.222 785.972V785.929ZM543.29 781.568L701.561 623.297L729.005 650.742L570.734 809.013L543.29 781.568ZM768.627 690.148C774.486 696.006 779.134 702.961 782.306 710.615C785.477 718.27 787.109 726.474 787.109 734.76C787.109 743.045 785.477 751.25 782.306 758.904C779.134 766.559 774.486 773.514 768.627 779.372L699.956 848.042C688.111 859.881 672.049 866.532 655.301 866.532C638.554 866.532 622.492 859.881 610.646 848.042L576.85 814.235L731.686 659.398C781.367 590.539 803.437 505.562 793.543 421.23C783.65 336.898 742.51 259.337 678.24 203.847L688.328 192.165C755.27 249.956 798.225 330.658 808.78 418.462C819.335 506.267 796.73 594.849 745.392 666.859L768.627 690.148Z" fill="#1CB398"/>
</svg>
