<svg width="172" height="506" viewBox="0 0 172 506" fill="none" xmlns="http://www.w3.org/2000/svg">
<g id="Girl">
<path id="Vector" d="M52.2847 493.206H39.5351L33.4697 443.743H52.287L52.2847 493.206Z" fill="#FFB7B7"/>
<path id="Vector_2" d="M55.5369 505.637L14.4243 505.636V505.113C14.4246 500.844 16.1106 496.751 19.1115 493.733C22.1125 490.714 26.1825 489.019 30.4265 489.019H30.4275L55.5377 489.02L55.5369 505.637Z" fill="#2F2E41"/>
<g id="LeftLegGirl">
<path id="Vector_3" d="M171.293 483.1L136.824 505.637L136.541 505.199C134.228 501.62 133.423 497.264 134.303 493.088C135.183 488.913 137.677 485.26 141.235 482.933L141.235 482.933L162.288 469.167L171.293 483.1Z" fill="#2F2E41"/>
<path id="Vector_4" d="M161.83 474.46L151.14 481.45L119.247 443.306L135.025 432.99L161.83 474.46Z" fill="#FFB7B7"/>
<path id="Vector_5" d="M114.568 238.456L139.3 367.496L171.762 463.886L119.205 474.77L68.1936 281.987L66.6471 466.997L0.178223 468.551L15.6369 358.167L34.4042 233.547L114.568 238.456Z" fill="#2F2E41"/>
</g>
<path id="Vector_6" d="M94.472 102.301L58.9187 103.197L34.1861 115.634L37.2777 187.15L31.2836 241.916C31.2836 241.916 29.043 250.499 44.5009 258.272C49.4477 260.76 55.8191 261.815 62.1968 262.099C75.2577 262.525 88.0712 258.45 98.5142 250.549C101.756 248.159 105.348 246.562 108.384 247.784C116.113 250.893 117.659 241.565 117.659 241.565L108.384 196.479L122.296 153.606L108.245 107.582L94.472 102.301Z" fill="white"/>
<g id="HeadGirl">
<path id="Vector_7" d="M72.6942 91.0275C91.7538 91.0275 107.205 75.4875 107.205 56.318C107.205 37.1486 91.7538 21.6086 72.6942 21.6086C53.6345 21.6086 38.1836 37.1486 38.1836 56.318C38.1836 75.4875 53.6345 91.0275 72.6942 91.0275Z" fill="#2F2E41"/>
<path id="Vector_8" d="M84.865 26.3236C91.3534 26.3236 96.6133 21.0334 96.6133 14.5076C96.6133 7.98184 91.3534 2.69165 84.865 2.69165C78.3766 2.69165 73.1167 7.98184 73.1167 14.5076C73.1167 21.0334 78.3766 26.3236 84.865 26.3236Z" fill="#2F2E41"/>
<path id="Vector_9" d="M73.7753 18.8053C72.5503 17.1732 71.7672 15.2494 71.5028 13.2218C71.2384 11.1943 71.5016 9.13241 72.2667 7.23782C73.0319 5.34322 74.2727 3.68073 75.8679 2.41287C77.4631 1.14501 79.3582 0.31515 81.3678 0.00446783C79.737 -0.0406538 78.1148 0.256412 76.6044 0.876716C75.0941 1.49702 73.7288 2.42696 72.5956 3.60729C71.4623 4.78762 70.586 6.19245 70.0224 7.73224C69.4588 9.27202 69.2204 10.913 69.3222 12.5506C69.4241 14.1882 69.8639 15.7865 70.6139 17.2437C71.3639 18.7008 72.4074 19.9849 73.6781 21.014C74.9487 22.0431 76.4186 22.7947 77.994 23.2209C79.5694 23.6471 81.2158 23.7385 82.8282 23.4894C81.0662 23.4436 79.3371 22.9987 77.7696 22.1877C76.2022 21.3767 74.8369 20.2205 73.7753 18.8053V18.8053Z" fill="#2F2E41"/>
<path id="FrontFaceGirl" d="M72.8026 90.7877C85.6083 90.7877 95.9894 80.3468 95.9894 67.4672C95.9894 54.5877 85.6083 44.1467 72.8026 44.1467C59.9968 44.1467 49.6157 54.5877 49.6157 67.4672C49.6157 80.3468 59.9968 90.7877 72.8026 90.7877Z" fill="#FFB8B8"/>
<path id="Vector_10" d="M51.3979 43.0837V69.0487H57.3779L64.9864 60.8495L63.9675 69.0487H90.3946L88.7649 60.8495L92.0255 69.0487H96.2378V43.0837H51.3979Z" fill="#2F2E41"/>
<path id="Vector_11" d="M50.3732 77.2383H47.5356C46.783 77.2383 46.0613 76.9376 45.5291 76.4023C44.9969 75.8671 44.698 75.1411 44.698 74.3842V74.3842V61.2815C44.698 60.5246 44.9969 59.7987 45.5291 59.2634C46.0613 58.7282 46.783 58.4275 47.5356 58.4275H50.3732V77.2383V77.2383Z" fill="white"/>
<path id="Vector_12" d="M100.879 61.0003C100.812 60.2972 100.487 59.6443 99.9679 59.1687C99.4486 58.6931 98.772 58.4289 98.0697 58.4275H95.2319V77.2383H98.0697C98.772 77.2368 99.4486 76.9726 99.9679 76.497C100.487 76.0215 100.812 75.3686 100.879 74.6654C102.293 74.2824 103.542 73.4414 104.433 72.2725C105.324 71.1037 105.808 69.6721 105.809 68.1991V67.4667C105.808 65.9937 105.325 64.5621 104.433 63.3932C103.542 62.2244 102.293 61.3834 100.879 61.0003Z" fill="white"/>
<path id="Vector_13" d="M49.5994 74.9032H46.462C45.5867 74.9032 44.7199 74.7298 43.9112 74.3929C43.1025 74.056 42.3676 73.5621 41.7487 72.9396C41.1297 72.3171 40.6387 71.578 40.3038 70.7647C39.9688 69.9513 39.7964 69.0796 39.7964 68.1992V67.4667C39.7964 66.5863 39.9688 65.7145 40.3038 64.9012C40.6387 64.0878 41.1297 63.3488 41.7487 62.7262C42.3676 62.1037 43.1025 61.6099 43.9112 61.273C44.7199 60.9361 45.5867 60.7627 46.462 60.7627H49.5994V74.9032V74.9032Z" fill="white"/>
<path id="Vector_14" d="M40.5376 43.6744C44.2725 35.4952 51.0208 29.0953 59.3584 25.8255C67.6959 22.5558 76.9705 22.6719 85.2245 26.1493C84.8763 25.9741 84.5303 25.796 84.1738 25.6314C75.8558 21.7904 66.3614 21.43 57.7793 24.6296C49.1972 27.8292 42.2303 34.3267 38.4113 42.6926C34.5923 51.0585 34.2341 60.6075 37.4153 69.2391C40.5966 77.8707 47.0568 84.8777 55.3748 88.7187C55.7314 88.8833 56.0913 89.0311 56.4503 89.1825C48.4481 85.1533 42.3153 78.1548 39.3463 69.664C36.3774 61.1733 36.8046 51.8544 40.5376 43.6744V43.6744Z" fill="#2F2E41"/>
<path id="Vector_15" d="M99.36 61.7469H97.28C97.28 46.972 86.3954 34.9521 73.0164 34.9521C59.6363 34.9521 48.7516 46.972 48.7516 61.7469H46.6716C46.6716 45.8188 58.4897 32.8601 73.0164 32.8601C87.5421 32.8601 99.36 45.8188 99.36 61.7469Z" fill="white"/>
</g>
<path id="Vector_16" d="M14.6225 279.717C15.8739 279.03 16.9603 278.076 17.8052 276.921C18.6501 275.766 19.2329 274.438 19.5126 273.032C19.7923 271.626 19.7621 270.176 19.4241 268.783C19.0861 267.39 18.4485 266.088 17.5562 264.97L28.2668 245.314L17.9781 235.854L3.24032 263.826C1.47161 265.458 0.359608 267.686 0.115022 270.087C-0.129565 272.489 0.510243 274.897 1.91324 276.856C3.31624 278.815 5.38496 280.188 7.72734 280.716C10.0697 281.243 12.5231 280.888 14.6225 279.717V279.717Z" fill="#FFB7B7"/>
<path id="Vector_17" d="M41.9151 115.634L37.754 113.584C37.754 113.584 28.003 115.634 24.9114 121.853C21.8199 128.072 14.091 191.814 14.091 191.814L7.90783 233.791C7.90783 233.791 3.27041 233.791 3.27041 238.455C3.27041 243.12 -2.91271 255.557 1.72463 255.557C6.36198 255.557 24.9116 255.557 28.0031 252.448C31.0946 249.338 37.2778 236.901 35.732 235.346C34.1862 233.791 31.0946 233.791 31.0946 233.791L35.4436 191.707L41.9151 115.634Z" fill="white"/>
<path id="Vector_18" d="M124.992 265.106C123.954 264.123 123.143 262.923 122.617 261.59C122.09 260.258 121.86 258.826 121.943 257.394C122.026 255.963 122.421 254.567 123.098 253.305C123.776 252.044 124.72 250.947 125.864 250.092L120.448 228.35L132.782 221.817L140.002 252.629C141.303 254.658 141.818 257.096 141.45 259.482C141.083 261.868 139.858 264.035 138.008 265.573C136.157 267.111 133.811 267.913 131.412 267.827C129.013 267.741 126.729 266.773 124.992 265.106V265.106Z" fill="#FFB7B7"/>
<path id="Vector_19" d="M109.479 177.952L113.828 220.036C113.828 220.036 110.736 220.036 109.19 221.591C107.645 223.146 113.828 235.583 116.919 238.693C120.011 241.802 138.56 241.802 143.198 241.802C147.835 241.802 141.652 229.365 141.652 224.7C141.652 220.036 137.015 220.036 137.015 220.036L130.831 178.059C130.831 178.059 123.103 121.194 120.011 114.976C116.919 108.757 107.168 106.706 107.168 106.706L103.007 108.757L109.479 177.952Z" fill="white"/>
<path id="Vector_20" d="M24.7027 265.566L24.5032 265.693L21.0354 260.196C20.7718 259.778 20.429 259.416 20.0265 259.132C19.624 258.847 19.1697 258.645 18.6896 258.537C18.2095 258.429 17.7129 258.417 17.2282 258.502C16.7435 258.587 16.2802 258.768 15.8647 259.033L4.28441 266.422C3.44538 266.957 2.85213 267.806 2.63526 268.781C2.41838 269.757 2.59564 270.779 3.12796 271.623V271.623L22.1528 301.782C22.4163 302.2 22.7591 302.561 23.1616 302.846C23.5641 303.131 24.0184 303.333 24.4986 303.441C24.9787 303.549 25.4753 303.561 25.96 303.476C26.4447 303.39 26.9079 303.21 27.3234 302.945L38.9038 295.556C39.7428 295.02 40.336 294.172 40.5528 293.196C40.7697 292.221 40.5925 291.199 40.0602 290.355L26.9717 269.606L27.1712 269.479L24.7027 265.566Z" fill="#3F3D56"/>
<path id="Vector_21" d="M20.3761 260.648L39.3729 290.763C39.7704 291.393 39.9028 292.156 39.7408 292.885C39.5788 293.613 39.1358 294.247 38.5092 294.647L26.8733 302.072C26.2467 302.471 25.4879 302.604 24.7637 302.442C24.0395 302.279 23.4094 301.833 23.0118 301.203L4.01497 271.088C3.61743 270.458 3.48509 269.694 3.64706 268.966C3.80903 268.238 4.25204 267.604 4.87864 267.204L6.29024 266.303C6.32903 266.519 6.41992 266.722 6.55492 266.894C6.68992 267.066 6.86484 267.202 7.06439 267.29C7.26393 267.378 7.48196 267.416 7.69927 267.399C7.91657 267.383 8.12653 267.313 8.31064 267.195L14.945 262.962C15.1289 262.844 15.2812 262.683 15.3887 262.492C15.4961 262.302 15.5554 262.087 15.5611 261.868C15.5669 261.649 15.519 261.432 15.4217 261.236C15.3244 261.04 15.1808 260.871 15.0032 260.744L16.5146 259.779C17.1412 259.379 17.9001 259.246 18.6242 259.409C19.3484 259.572 19.9785 260.018 20.3761 260.648V260.648Z" fill="white"/>
</g>
</svg>
