<svg width="200" height="522" viewBox="0 0 200 522" fill="none" xmlns="http://www.w3.org/2000/svg">
<g id="Guy">
<path id="Vector" d="M1.62873 292.133C1.03154 290.836 0.701552 289.411 0.661967 287.959C0.622381 286.507 0.874194 285.063 1.39965 283.729C1.9251 282.395 2.7114 281.203 3.70321 280.238C4.69502 279.272 5.86822 278.557 7.14011 278.141L8.55526 242.863L22.1343 253.627L18.7086 285.478C19.2049 287.862 18.8846 290.363 17.8085 292.507C16.7323 294.65 14.9752 296.288 12.8699 297.108C10.7645 297.928 8.45739 297.875 6.38558 296.958C4.31376 296.041 2.62124 294.324 1.62873 292.133V292.133Z" fill="#FFB6B6"/>
<path id="Vector_2" d="M45.1883 507.58H58.762L65.2197 450.28L45.1855 450.281L45.1883 507.58Z" fill="#FFB6B6"/>
<path id="Vector_3" d="M41.7263 521.981L85.4951 521.979V521.373C85.4948 516.429 83.6998 511.687 80.505 508.19C77.3102 504.694 72.9772 502.73 68.4591 502.729H68.458L60.4631 496.091L45.5463 502.73L41.7256 502.73L41.7263 521.981Z" fill="#2F2E41"/>
<path id="Vector_4" d="M131.383 507.187L144.816 505.062L143.72 447.339L123.892 450.476L131.383 507.187Z" fill="#FFB6B6"/>
<path id="Vector_5" d="M129.838 521.981L173.156 515.129L173.077 514.529C172.431 509.635 170.035 505.223 166.416 502.262C162.797 499.302 158.252 498.036 153.78 498.743L153.779 498.743L144.999 493.425L131.103 502.33L127.321 502.928L129.838 521.981Z" fill="#2F2E41"/>
<path id="Vector_6" d="M24.7848 286.732C32.1984 284.703 39.612 282.675 47.0256 280.646C58.8425 277.413 70.6594 274.18 82.4762 270.947L90.6146 268.72C90.8328 268.658 91.0616 268.656 91.2807 268.714C91.4656 268.752 91.6405 268.834 91.7931 268.954C91.9457 269.075 92.0721 269.23 92.1634 269.41C93.9893 272.741 95.8152 276.071 97.6412 279.402L110.564 302.973C115.598 312.155 120.632 321.337 125.666 330.519L137.68 352.434C138.751 354.386 139.821 356.339 140.892 358.292C141.339 358.945 141.631 359.709 141.743 360.515C142.111 365.016 142.377 369.53 142.694 374.035C143.333 383.128 143.972 392.221 144.611 401.314L146.869 433.44C147.529 442.824 148.188 452.208 148.848 461.592C149.199 466.593 149.551 471.594 149.902 476.595L149.952 477.296C149.949 477.624 149.849 477.942 149.668 478.203C149.486 478.463 149.233 478.653 148.945 478.744L127.374 486.613L124.259 487.749C123.908 487.853 123.534 487.802 123.218 487.605C122.902 487.409 122.67 487.084 122.572 486.701C121.155 477.401 119.739 468.102 118.323 458.802C116.044 443.839 113.766 428.876 111.487 413.913C111.13 411.57 110.773 409.228 110.417 406.885C110.173 405.714 109.992 404.528 109.874 403.333C109.438 402.765 109.079 402.132 108.808 401.452C107.484 398.648 107.189 395.396 107.981 392.36L108.09 391.982C108.103 391.929 108.115 391.89 108.126 391.848C108.026 391.189 107.926 390.531 107.826 389.873C107.53 387.933 107.235 385.994 106.94 384.054C106.703 382.501 106.467 380.949 106.23 379.397C106.219 379.322 106.199 379.237 106.182 379.152C106.266 379.221 106.363 379.269 106.466 379.295C106.413 379.281 106.346 379.156 106.305 379.119C106.255 379.075 106.209 379.023 106.16 378.978C106.151 378.931 106.146 378.883 106.145 378.835C106.158 378.551 106.019 378.655 106.017 378.839C105.12 377.981 104.312 376.938 103.479 376.026C99.2197 371.365 94.9608 366.704 90.7019 362.043C83.0227 353.639 75.3435 345.235 67.6644 336.83V467.497C67.6644 473.667 67.8491 479.875 67.6644 486.042C67.6618 486.129 67.6644 486.215 67.6644 486.302C67.6592 486.698 67.513 487.077 67.2569 487.357C67.0008 487.637 66.655 487.797 66.2929 487.803H41.6067C41.2457 487.793 40.9019 487.632 40.6466 487.353C40.3912 487.073 40.244 486.697 40.2353 486.302C39.9326 482.659 39.63 479.015 39.3274 475.372C38.6369 467.059 37.9464 458.747 37.2559 450.434C36.5036 441.378 35.7514 432.322 34.9991 423.266L33.5352 405.643C33.4997 405.214 33.4356 404.766 33.421 404.33C33.3662 404.185 33.3069 404.021 33.2737 403.943C33.0473 403.412 32.8209 402.881 32.5945 402.349C31.4038 399.554 30.5277 396.783 30.8632 393.635C30.9517 392.74 31.1221 391.857 31.3719 391C31.5086 390.543 31.6713 390.096 31.8478 389.656C31.9408 389.424 32.0365 389.184 32.1471 388.961C32.1474 388.942 32.1467 388.923 32.1448 388.905C31.761 386.651 31.7568 384.233 31.5673 381.953C31.2229 377.807 30.8785 373.661 30.5342 369.515L28.4587 344.53L27.6941 335.325L25.6058 310.185C25.0286 303.237 24.4515 296.29 23.8744 289.343C23.8422 288.955 23.81 288.567 23.7778 288.179C23.7786 287.851 23.8774 287.532 24.0591 287.27C24.2409 287.009 24.4957 286.82 24.7848 286.732V286.732Z" fill="#2F2E41"/>
<path id="Vector_7" d="M106.182 379.152C106.133 379.118 106.093 379.072 106.064 379.018C106.036 378.963 106.02 378.902 106.018 378.839C106.065 378.885 106.112 378.933 106.16 378.978C106.167 379.037 106.169 379.092 106.182 379.152Z" fill="#2F2E41"/>
<path id="Vector_8" d="M41.6066 117.073L58.064 99.0615V90.0559L90.9789 99.0615V117.073C90.9789 117.073 115.665 171.106 107.436 198.123C102.603 213.991 100.609 239.178 99.786 257.264C99.7077 258.984 97.6096 260.956 97.551 262.533C97.4995 263.923 103.075 267.279 103.037 268.537C102.797 276.403 99.2077 279.173 99.2077 279.173L25.1491 288.179C25.6631 281.593 24.2462 280.005 24.4068 273.54C24.4598 271.409 28.9658 264.651 28.9783 262.533C28.9901 260.542 26.272 258.25 26.247 256.27C26.2309 254.993 26.2071 253.719 26.1755 252.448C25.6285 230.467 22.7399 209.29 16.9204 189.117L41.6066 117.073Z" fill="#FAE8F7"/>
<path id="Vector_9" d="M23.9374 273.063L25.6035 204.262L59.2095 138.06C60.9121 134.7 61.3259 130.737 60.36 127.043C59.3941 123.349 57.1276 120.226 54.0585 118.36C50.9894 116.494 47.3688 116.037 43.9926 117.092C40.6164 118.146 37.7607 120.624 36.0532 123.981L-0.000123828 195.004L0.00657273 195.147L2.00706 236.544L4.73434 252.485L3.12315 257.339L3.85843 272.017L23.9374 273.063Z" fill="#FAE8F7"/>
<g id="HeadMan">
<path id="Vector_10" d="M49.8355 50.1598C49.8355 56.3054 51.5006 62.313 54.6204 67.4229C57.7402 72.5328 62.1745 76.5155 67.3625 78.8674C72.5505 81.2192 78.2593 81.8346 83.7668 80.6356C89.2744 79.4367 94.3335 76.4773 98.3042 72.1316C102.275 67.786 104.979 62.2494 106.075 56.2218C107.17 50.1943 106.608 43.9466 104.459 38.2688C102.31 32.591 98.6708 27.738 94.0017 24.3237C89.3326 20.9094 83.8432 19.087 78.2278 19.087V19.087C70.7164 19.0665 63.5053 22.3124 58.1807 28.1106C52.8561 33.9089 49.8543 41.7845 49.8355 50.005C49.8354 50.0566 49.8353 50.1082 49.8355 50.1598Z" fill="#FFB6B6"/>
<path id="Vector_11" d="M106.526 8.42348C103.2 0.596221 96.7632 2.14374 91.134 4.79696C84.0056 3.06649 77.226 -2.11433 69.5455 0.949572C61.9798 12.9922 36.5787 9.44909 41.9827 29.0546C41.9898 33.7525 33.9053 31.018 35.3167 38.712C31.0341 53.5192 50.7751 81.5617 62.108 75.6564C59.3052 70.0347 52.9026 57.2659 62.6136 55.9994C83.5035 77.2717 64.7689 15.4921 91.0166 33.4586C99.7073 42.1629 111.605 17.13 106.526 8.42348Z" fill="#2F2E41"/>
<path id="Vector_12" d="M59.6354 66.3867C59.2624 65.4538 59.1479 64.4216 59.3062 63.4182C59.4644 62.4147 59.8884 61.4842 60.5255 60.7421C61.0122 60.1918 61.5745 59.7281 62.1918 59.3675L62.4323 59.2988C63.1211 59.1019 63.8497 59.1563 64.5076 59.4538C65.1656 59.7512 65.7169 60.2754 66.078 60.9468L66.2048 61.1825C66.4619 61.6607 66.6139 62.1978 66.6489 62.7514C66.6839 63.3049 66.6008 63.8598 66.4062 64.3722L65.9286 65.63L68.9588 71.1012C69.0897 71.3375 69.1329 71.6197 69.0795 71.8897C69.0261 72.1598 68.8803 72.3971 68.6719 72.5531L68.0044 73.0528C67.8959 73.134 67.7737 73.1907 67.6449 73.2195C67.5162 73.2484 67.3835 73.2488 67.2546 73.2208C67.1257 73.1927 67.0032 73.1368 66.8943 73.0563C66.7854 72.9758 66.6923 72.8723 66.6204 72.7519L63.935 68.253C63.6616 68.3824 63.3732 68.4703 63.078 68.5142C62.3707 68.6193 61.6513 68.4682 61.0298 68.0841C60.4082 67.7 59.9185 67.1039 59.6354 66.3867V66.3867Z" fill="white"/>
<path id="Vector_13" d="M64.3848 65.7147C64.5456 65.6045 64.66 65.4289 64.7028 65.2265C64.7455 65.024 64.7131 64.8114 64.6128 64.635L63.5509 62.7742C63.5013 62.6865 63.4363 62.6105 63.3597 62.5504C63.2832 62.4903 63.1965 62.4474 63.1048 62.424C63.013 62.4006 62.918 62.3973 62.825 62.4142C62.7321 62.4311 62.6431 62.4679 62.5632 62.5225C62.4833 62.5771 62.414 62.6485 62.3593 62.7325C62.3047 62.8164 62.2657 62.9114 62.2446 63.0119C62.2235 63.1124 62.2208 63.2164 62.2366 63.3181C62.2523 63.4197 62.2862 63.517 62.3364 63.6043L63.3982 65.4651C63.499 65.6412 63.6594 65.7664 63.8443 65.8132C64.0293 65.8599 64.2236 65.8245 64.3848 65.7147V65.7147Z" fill="#2F2E41"/>
</g>
<g id="LeftFullArmGuy">
<path id="LeftHandGuy" d="M179.404 278.913C178.084 278.763 176.81 278.297 175.672 277.55C174.534 276.802 173.559 275.79 172.817 274.586C172.075 273.381 171.583 272.013 171.376 270.579C171.17 269.144 171.253 267.676 171.62 266.28L145.254 245.925L160.866 239.231L183.509 259.587C185.611 260.418 187.362 262.063 188.429 264.212C189.496 266.361 189.807 268.864 189.3 271.246C188.794 273.628 187.507 275.724 185.683 277.138C183.859 278.551 181.625 279.183 179.404 278.913H179.404Z" fill="#FFB6B6"/>
<path id="PhoneGuy" d="M164.249 282.476L177.523 289.917C178.319 290.362 179.244 290.444 180.095 290.143C180.946 289.843 181.653 289.185 182.062 288.315L199.273 251.544C199.68 250.672 199.754 249.66 199.48 248.729C199.205 247.797 198.604 247.023 197.809 246.576L184.535 239.134C183.739 238.689 182.814 238.608 181.963 238.908C181.112 239.209 180.404 239.866 179.996 240.737L162.785 277.508C162.378 278.379 162.304 279.392 162.578 280.323C162.853 281.254 163.453 282.029 164.249 282.476Z" fill="#3F3D56"/>
<path id="ScreenGuy" d="M184.206 240.238L185.684 241.066C185.816 241.14 185.915 241.268 185.961 241.423C186.006 241.577 185.994 241.745 185.926 241.889C185.789 242.184 185.763 242.527 185.856 242.843C185.949 243.158 186.153 243.42 186.422 243.572L193.649 247.623C193.918 247.774 194.232 247.801 194.52 247.7C194.808 247.598 195.048 247.375 195.186 247.08C195.254 246.936 195.371 246.827 195.512 246.777C195.653 246.728 195.807 246.741 195.938 246.815L197.241 247.545C197.844 247.884 198.3 248.471 198.508 249.178C198.716 249.884 198.66 250.652 198.352 251.313L181.263 287.823C180.953 288.483 180.416 288.981 179.771 289.209C179.126 289.437 178.424 289.375 177.82 289.038L164.785 281.73C164.182 281.391 163.726 280.804 163.518 280.098C163.31 279.391 163.366 278.624 163.675 277.963L180.764 241.453C181.073 240.793 181.61 240.294 182.255 240.066C182.901 239.838 183.602 239.9 184.206 240.238V240.238Z" fill="white"/>
<path id="LeftArmGuy" d="M155.787 264.911L176.022 250.587L126.98 203.321L101.098 133.081C100.37 131.106 99.2534 129.33 97.8274 127.881C96.4014 126.431 94.7011 125.344 92.8474 124.695C90.9936 124.046 89.032 123.853 87.1022 124.128C85.1724 124.403 83.3217 125.141 81.6819 126.288V126.288C79.0797 128.11 77.1408 130.869 76.2001 134.089C75.2594 137.309 75.3761 140.788 76.53 143.924L104.303 219.297L117.351 227.888L122.273 235.256L126.471 235.035L127.844 240.18L135.695 243.945L155.787 264.911Z" fill="#FAE8F7"/>
<path id="Vector_14" d="M174.63 251.887C174.699 251.925 174.78 251.933 174.855 251.906C174.929 251.88 174.991 251.823 175.026 251.747L177.651 246.138C177.669 246.1 177.68 246.059 177.684 246.017C177.687 245.974 177.682 245.932 177.671 245.891C177.659 245.851 177.64 245.813 177.615 245.781C177.59 245.749 177.559 245.722 177.524 245.703C177.49 245.683 177.452 245.672 177.413 245.668C177.375 245.665 177.336 245.67 177.299 245.683C177.262 245.696 177.228 245.717 177.199 245.745C177.169 245.772 177.145 245.806 177.127 245.844L174.502 251.453C174.467 251.529 174.46 251.617 174.484 251.699C174.508 251.78 174.56 251.848 174.63 251.887V251.887Z" fill="#3F3D56"/>
<path id="Vector_15" d="M195.963 258.616C196.032 258.655 196.113 258.662 196.187 258.636C196.262 258.61 196.323 258.552 196.359 258.476L196.956 257.201C196.991 257.125 196.998 257.037 196.974 256.956C196.95 256.874 196.897 256.807 196.828 256.768C196.758 256.729 196.678 256.722 196.603 256.748C196.529 256.774 196.467 256.831 196.431 256.908L195.835 258.182C195.799 258.258 195.793 258.347 195.817 258.428C195.841 258.509 195.893 258.577 195.963 258.616V258.616Z" fill="#3F3D56"/>
<path id="Vector_16" d="M194.859 260.974C194.928 261.013 195.009 261.02 195.084 260.994C195.158 260.968 195.22 260.91 195.255 260.834L195.852 259.559C195.87 259.522 195.881 259.481 195.884 259.438C195.887 259.396 195.883 259.354 195.871 259.313C195.859 259.273 195.84 259.235 195.815 259.203C195.79 259.171 195.759 259.144 195.725 259.125C195.69 259.105 195.652 259.094 195.614 259.09C195.575 259.087 195.536 259.092 195.499 259.105C195.463 259.118 195.428 259.139 195.399 259.167C195.37 259.194 195.345 259.228 195.328 259.266L194.731 260.54C194.696 260.616 194.689 260.705 194.713 260.786C194.737 260.868 194.789 260.935 194.859 260.974V260.974Z" fill="#3F3D56"/>
<path id="Vector_17" d="M188.648 243.653L192.725 245.938C192.763 245.96 192.808 245.964 192.85 245.95C192.891 245.935 192.925 245.903 192.945 245.861C192.965 245.819 192.968 245.769 192.955 245.724C192.942 245.679 192.913 245.641 192.874 245.62L188.797 243.334C188.778 243.324 188.757 243.317 188.736 243.315C188.714 243.313 188.692 243.316 188.672 243.323C188.651 243.33 188.632 243.341 188.616 243.357C188.599 243.372 188.586 243.391 188.576 243.412C188.566 243.433 188.56 243.456 188.559 243.479C188.557 243.503 188.559 243.526 188.566 243.549C188.573 243.571 188.583 243.592 188.598 243.61C188.612 243.628 188.629 243.642 188.648 243.653V243.653Z" fill="white"/>
<path id="Vector_18" d="M188.082 243.278C188.01 243.278 187.952 243.214 187.952 243.134C187.952 243.055 188.01 242.991 188.082 242.991C188.154 242.991 188.213 243.055 188.213 243.134C188.213 243.214 188.154 243.278 188.082 243.278Z" fill="white"/>
</g>
</g>
</svg>
