<svg width="165" height="135" viewBox="0 0 165 135" fill="none" xmlns="http://www.w3.org/2000/svg">
<path d="M28.4387 51H0.337577V3.09707H8.16366V44.3023H28.4387V51ZM50.8125 20.3873C44.6972 20.3873 41.6396 24.549 41.6396 32.8726C41.6396 41.1962 44.7215 45.3579 50.8853 45.3579C57.0006 45.3579 60.0582 41.1962 60.0582 32.8726C60.0582 24.549 56.9763 20.3873 50.8125 20.3873ZM33.7043 32.8362C33.7043 26.9151 35.2089 22.3165 38.218 19.0404C41.2271 15.7644 45.4131 14.1264 50.7761 14.1264C56.1391 14.1264 60.3494 15.8251 63.407 19.2224C66.4647 22.5956 67.9935 27.182 67.9935 32.9818C67.9935 38.7816 66.4768 43.3438 63.4434 46.6684C60.4101 49.9929 56.1876 51.6552 50.7761 51.6552C45.68 51.7523 41.5425 50.0536 38.3636 46.5592C35.1846 43.0404 33.6315 38.4661 33.7043 32.8362ZM86.199 50.8544C83.9907 50.8544 82.2314 51.3761 80.921 52.4196C79.6348 53.4631 78.9917 54.8342 78.9917 56.5329C78.9917 58.2558 79.7319 59.5662 81.2122 60.4641C82.7167 61.362 84.8279 61.8109 87.5458 61.8109C91.6227 61.8109 94.7167 61.2164 96.8279 60.0273C98.9392 58.8625 99.9948 57.2609 99.9948 55.2224C99.9948 53.6694 99.4245 52.5531 98.284 51.8736C97.1677 51.1941 95.0807 50.8544 92.0231 50.8544H86.199ZM107.457 14.7816V19.004L101.269 20.1325C102.579 21.9525 103.234 24.0758 103.234 26.5025C103.234 30.2154 101.936 33.1517 99.3396 35.3114C96.7673 37.4469 93.2243 38.5147 88.7106 38.5147C87.473 38.5147 86.4296 38.4297 85.5802 38.2599C83.9058 39.2791 83.0686 40.4803 83.0686 41.8635C83.0686 42.7128 83.469 43.3438 84.2698 43.7563C85.0949 44.1446 86.5145 44.3387 88.5286 44.3387H94.8259C98.8057 44.3387 101.839 45.1881 103.926 46.8868C106.013 48.5854 107.056 51.0485 107.056 54.276C107.056 58.3771 105.358 61.544 101.96 63.7765C98.563 66.0091 93.6732 67.1254 87.291 67.1254C82.3891 67.1254 78.6277 66.2518 76.0069 64.5046C73.4103 62.7573 72.1121 60.27 72.1121 57.0425C72.1121 54.8099 72.8037 52.9292 74.1869 51.4004C75.5944 49.8959 77.5721 48.8402 80.1202 48.2336C79.1009 47.7968 78.2516 47.093 77.5721 46.1223C76.9169 45.1517 76.5893 44.0718 76.5893 42.8827C76.5893 41.6936 76.9412 40.638 77.6449 39.7159C78.3729 38.7695 79.5377 37.8109 81.1394 36.8402C79.2223 36.0152 77.6813 34.6926 76.5165 32.8726C75.376 31.0283 74.8057 28.905 74.8057 26.5025C74.8057 22.5713 76.0433 19.5258 78.5185 17.366C81.018 15.2063 84.561 14.1264 89.1475 14.1264C90.1424 14.1264 91.2101 14.1992 92.3507 14.3448C93.5155 14.4661 94.3648 14.6117 94.8987 14.7816H107.457ZM89.0747 19.0768C86.8421 19.0768 85.1555 19.7078 84.015 20.9697C82.8745 22.2315 82.3042 24.0394 82.3042 26.3933C82.3042 28.723 82.8866 30.5066 84.0514 31.7442C85.2162 32.9575 86.8906 33.5642 89.0747 33.5642C93.5155 33.5642 95.7359 31.1496 95.7359 26.3205C95.7359 21.4914 93.5155 19.0768 89.0747 19.0768ZM121.897 14.7816V51H114.18V14.7816H121.897ZM122.37 5.13549C122.37 6.47017 121.994 7.51365 121.242 8.26593C120.489 9.0182 119.422 9.39434 118.038 9.39434C116.68 9.39434 115.624 9.0182 114.872 8.26593C114.119 7.51365 113.743 6.47017 113.743 5.13549C113.743 3.77654 114.119 2.73306 114.872 2.00505C115.624 1.25278 116.68 0.876642 118.038 0.876642C119.422 0.876642 120.489 1.25278 121.242 2.00505C121.994 2.73306 122.37 3.77654 122.37 5.13549ZM164.77 27.3761V51H157.017V28.723C157.017 25.908 156.446 23.821 155.306 22.4621C154.19 21.0789 152.418 20.3873 149.991 20.3873C146.74 20.3873 144.361 21.3579 142.857 23.2993C141.352 25.2406 140.6 28.456 140.6 32.9454V51H132.883V14.7816H138.926L139.981 19.5136H140.382C141.474 17.7907 143.015 16.4681 145.005 15.546C147.019 14.5996 149.263 14.1264 151.739 14.1264C160.426 14.1264 164.77 18.543 164.77 27.3761ZM56.525 134H50.0822L43.4937 112.924C43.0084 111.371 42.2318 108.447 41.1641 104.152H40.9093C40.0357 107.986 39.2713 110.934 38.6161 112.997L31.8456 134H25.5483L15.7566 98.1092H21.4351C24.2015 108.811 26.07 116.091 27.0407 119.949C28.0357 123.808 28.6302 126.574 28.8243 128.249H29.0791C29.3946 126.696 29.8193 124.924 30.3532 122.934C30.9113 120.944 31.336 119.537 31.6272 118.712L38.2156 98.1092H44.1125L50.519 118.712C51.7566 122.449 52.5938 125.604 53.0306 128.176H53.2854C53.4067 127.254 53.7344 125.664 54.2682 123.407C54.8021 121.126 56.9861 112.694 60.8203 98.1092H66.4624L56.525 134ZM77.975 91.0839C77.3683 91.6906 76.5918 91.9939 75.6454 91.9939C74.6989 91.9939 73.9345 91.6906 73.3521 91.0839C72.7697 90.453 72.4785 89.543 72.4785 88.3539C72.4785 87.1648 72.7697 86.2669 73.3521 85.6603C73.9345 85.0536 74.6989 84.7503 75.6454 84.7503C76.5918 84.7503 77.3683 85.0657 77.975 85.6967C78.5817 86.3033 78.885 87.2012 78.885 88.3903C78.885 89.5551 78.5817 90.453 77.975 91.0839ZM78.3754 98.1092V134H72.9153V98.1092H78.3754ZM95.7211 123.444C95.7211 125.604 96.2186 127.266 97.2135 128.431C98.2327 129.596 99.6159 130.178 101.363 130.178C103.135 130.178 104.809 129.96 106.386 129.523V133.672C105.828 133.939 104.943 134.17 103.729 134.364C102.54 134.558 101.521 134.655 100.672 134.655C93.7312 134.655 90.261 131.003 90.261 123.699V102.332H85.1286V99.7108L90.261 97.454L92.5543 89.7735H95.7211V98.1092H106.132V102.332H95.7211V123.444ZM143.586 134H138.126V110.777C138.126 107.816 137.459 105.632 136.124 104.224C134.79 102.793 132.715 102.077 129.9 102.077C126.09 102.077 123.323 103.108 121.6 105.171C119.877 107.234 119.016 110.582 119.016 115.217V134H113.556V83.0394H119.016V98.4732C119.016 100.415 118.931 101.943 118.761 103.06H119.089C120.181 101.312 121.71 99.9535 123.675 98.9828C125.665 97.9879 127.91 97.4904 130.409 97.4904C134.85 97.4904 138.15 98.546 140.31 100.657C142.494 102.768 143.586 106.081 143.586 110.595V134Z" fill="black"/>
</svg>
