<svg id="Layer_1" data-name="Layer 1" xmlns="http://www.w3.org/2000/svg" xmlns:xlink="http://www.w3.org/1999/xlink" viewBox="0 0 1920 1080"><defs><style>.cls-1{fill:url(#linear-gradient);}</style><linearGradient id="linear-gradient" x1="960" y1="-104.79" x2="960" y2="1120.88" gradientUnits="userSpaceOnUse"><stop offset="0.11" stop-color="#fedbdb"/><stop offset="0.96" stop-color="#d9caea"/></linearGradient></defs><path class="cls-1" d="M960,77C704.29,77,497,284.29,497,540s207.29,463,463,463,463-207.29,463-463S1215.71,77,960,77Zm56.34,98.29H1084v25h-67.61Zm0,32.55H1084v25h-67.61Zm0,32.55H1084v25h-67.61Zm0,32.55H1084v25h-67.61Zm0,32.55H1084v25h-67.61Zm0,32.56H1084v25h-67.61ZM926.2,272.94h67.6v25H926.2Zm0,32.55h67.6v25H926.2Zm0,32.56h67.6v25H926.2ZM836.05,175.29h67.61v25H836.05Zm0,32.55h67.61v25H836.05Zm0,32.55h67.61v25H836.05Zm0,32.55h67.61v25H836.05Zm0,32.55h67.61v25H836.05Zm0,32.56h67.61v25H836.05Zm19.68,526.63a58.67,58.67,0,0,1-83,0L709,800.9A58.59,58.59,0,0,1,709,718l21.69-21.69a329.64,329.64,0,0,1,53-440.83l9.37,10.85a315.28,315.28,0,0,0-49.35,423.51L887.12,833.28Zm37.08-36.29-147-147,25.49-25.49,147,147Zm53-21.43-169-169C606.45,467.6,789.91,284.15,960.29,454.53,1131.1,283.72,1314.55,467.17,1143.74,638l-169,169A20.49,20.49,0,0,1,945.81,807Zm55.79-4.05,147-147,25.49,25.49-147,147ZM1210.89,718a58.59,58.59,0,0,1,0,82.87l-63.78,63.78a58.67,58.67,0,0,1-82.95,0l-31.39-31.4,143.81-143.81a315.28,315.28,0,0,0-49.64-423.11l9.37-10.85a329.65,329.65,0,0,1,53,440.89Z"/></svg>